<svg width="64" height="64" viewBox="0 0 64 64" fill="none" xmlns="http://www.w3.org/2000/svg">
<g id="blocks-group-badged_svgrepo.com" clip-path="url(#clip0_4_261)">
<path id="Vector" d="M59.6089 33.3511L47.2889 27.68V22.56C45.9695 21.888 44.7686 21.0053 43.7333 19.9467V27.6622L32.3022 32.9956V19.3245C32.5163 19.3131 32.7267 19.265 32.9244 19.1822L40.8889 15.52C40.4457 14.3786 40.1587 13.1826 40.0356 11.9645L32.1778 15.52L23.1111 11.4311L32.1778 7.25334L39.9644 10.8089V10.6667C39.9646 9.46535 40.1261 8.26949 40.4444 7.11112L32.8889 3.69779C32.6549 3.58948 32.4001 3.53339 32.1422 3.53339C31.8844 3.53339 31.6296 3.58948 31.3956 3.69779L18.0622 9.83112C17.7536 9.97393 17.4925 10.2022 17.3097 10.489C17.127 10.7757 17.0303 11.1089 17.0311 11.4489V27.6978L4.76444 33.3511C4.45586 33.4939 4.1947 33.7222 4.01194 34.009C3.82918 34.2957 3.73249 34.6289 3.73333 34.9689V52.3556C3.73249 52.6956 3.82918 53.0287 4.01194 53.3155C4.1947 53.6022 4.45586 53.8305 4.76444 53.9733L18.0978 60.1067C18.3318 60.215 18.5866 60.2711 18.8444 60.2711C19.1023 60.2711 19.3571 60.215 19.5911 60.1067L32.1778 54.3111L44.7644 60.1067C44.9985 60.215 45.2532 60.2711 45.5111 60.2711C45.769 60.2711 46.0238 60.215 46.2578 60.1067L59.5911 53.9733C59.8997 53.8305 60.1609 53.6022 60.3436 53.3155C60.5264 53.0287 60.6231 52.6956 60.6222 52.3556V34.9689C60.6246 34.6308 60.5306 34.299 60.3511 34.0125C60.1716 33.7259 59.9142 33.4965 59.6089 33.3511ZM9.83111 34.9689L18.9156 30.7733L28 34.9511L18.8444 39.1111L9.83111 34.9689ZM18.8444 56.5333V42.8622C19.0919 42.8436 19.3334 42.7772 19.5556 42.6667L30.3644 37.6889V51.2L18.8444 56.5333ZM36.4444 34.9689L45.5289 30.7911L54.6133 34.9689L45.5289 39.1111L36.4444 34.9689ZM45.5822 56.5333V42.8622C45.8071 42.8434 46.0253 42.7767 46.2222 42.6667L57.0311 37.6889V51.2L45.5822 56.5333Z" fill="#6F928D"/>
<path id="Vector_2" d="M53.2978 19.5555C58.207 19.5555 62.1867 15.5759 62.1867 10.6667C62.1867 5.75746 58.207 1.77777 53.2978 1.77777C48.3886 1.77777 44.4089 5.75746 44.4089 10.6667C44.4089 15.5759 48.3886 19.5555 53.2978 19.5555Z" fill="#6F928D"/>
</g>
<defs>
<clipPath id="clip0_4_261">
<rect width="64" height="64" fill="white"/>
</clipPath>
</defs>
</svg>
