<svg width="64" height="64" viewBox="0 0 64 64" fill="none" xmlns="http://www.w3.org/2000/svg">
<g id="wind-turbines_svgrepo.com">
<path id="Vector" d="M25.6275 1.27499C21.2307 1.27499 18.4421 12.6373 17.9775 23.5775C9.35926 28.7743 2.43522 35.398 1.4125 39.4825C1.16546 40.4681 1.25266 41.3176 1.6725 42.0075C2.3125 43.0597 3.62108 43.49 5.335 43.49C7.14236 43.49 9.4 43.0072 11.8 42.2725C11.5107 41.4059 11.3754 40.2693 11.73 38.8575C13.0433 33.6108 20.8033 26.8142 28.29 22.1025C28.4846 18.9511 29.0584 12.7896 30.675 7.57999C30.6699 7.56207 30.6639 7.54041 30.6575 7.52249C29.3775 3.76953 27.6806 1.27755 25.6275 1.27499ZM38.4275 1.27749C34.0294 1.27749 31.2396 12.6386 30.7775 23.58C22.158 28.7781 15.2352 35.3993 14.2125 39.4825C13.9655 40.4694 14.0552 41.3189 14.475 42.0075C15.1137 43.0597 16.4224 43.49 18.135 43.49C23.6313 43.49 33.2771 39.0676 38.4125 36.5025C43.5466 39.0715 53.1937 43.5 58.69 43.5C60.4039 43.5 61.7137 43.0697 62.355 42.0175C62.7761 41.325 62.862 40.4744 62.615 39.4875C61.5923 35.3979 54.6792 28.773 46.075 23.58C45.6116 12.6411 42.8256 1.28005 38.4275 1.27749ZM38.425 25.6C39.8394 25.6 40.985 26.7456 40.985 28.16C40.985 29.5744 39.8394 30.72 38.425 30.72C37.0106 30.72 35.865 29.5744 35.865 28.16C35.865 26.7456 37.0106 25.6 38.425 25.6ZM38.4125 39.3575C37.3987 39.8529 36.333 40.3584 35.245 40.855L33.4075 60.155H30.6275L28.965 43.49C26.5752 44.386 24.2239 45.1219 22.0825 45.5725L20.6225 60.155H14.08C13.7392 60.155 13.4124 60.2904 13.1714 60.5314C12.9304 60.7724 12.795 61.0992 12.795 61.44C12.795 61.7808 12.9304 62.1076 13.1714 62.3486C13.4124 62.5896 13.7392 62.725 14.08 62.725H49.92C50.2608 62.725 50.5876 62.5896 50.8286 62.3486C51.0696 62.1076 51.205 61.7808 51.205 61.44C51.205 61.0992 51.0696 60.7724 50.8286 60.5314C50.5876 60.2904 50.2608 60.155 49.92 60.155H43.4225L41.5825 40.8575C40.4919 40.3596 39.4275 39.8554 38.4125 39.3575Z" fill="#6F928D"/>
</g>
</svg>
