<svg width="64" height="64" viewBox="0 0 64 64" fill="none" xmlns="http://www.w3.org/2000/svg">
<g id="farming-future-of-farming-increase_svgrepo.com">
<path id="Vector" d="M25.3333 14.6333V22.6666H26H26.6667V14.6333C33.7187 14.2833 39.3333 8.47198 39.3333 1.33331C32.4193 1.33331 26.7367 6.59598 26.0673 13.3333H25.9327C25.2633 6.59598 19.5807 1.33331 12.6667 1.33331C12.6667 8.47198 18.2813 14.2833 25.3333 14.6333ZM36.862 2.86198L37.8047 3.80465L29.138 12.4713L28.1953 11.5286L36.862 2.86198ZM23.8047 11.5286L22.862 12.4713L14.1953 3.80465L15.138 2.86198L23.8047 11.5286Z" fill="#6F928D"/>
<path id="Vector_2" d="M25.3333 33.9427C22.296 33.9267 19.338 33.8033 16.5307 33.5753C15.9513 35.9047 15.6213 38.3493 15.5467 40.8633C18.6673 41.152 21.952 41.3073 25.3333 41.3253V33.9427Z" fill="#6F928D"/>
<path id="Vector_3" d="M6.82067 39.5953C9.04867 40.0666 11.5293 40.448 14.218 40.732C14.2973 38.2346 14.624 35.7926 15.19 33.456C13.0387 33.252 10.9893 32.986 9.07133 32.66C7.90867 34.7633 7.13 37.106 6.82067 39.5953Z" fill="#6F928D"/>
<path id="Vector_4" d="M42.1853 31.4307C40.4547 28.786 38.0967 26.5907 35.3187 25.0593C34.7813 25.4393 34.1493 25.7787 33.4407 26.0727C34.4613 27.9347 35.2933 29.986 35.9173 32.1973C38.1207 32.006 40.22 31.7493 42.1853 31.4307Z" fill="#6F928D"/>
<path id="Vector_5" d="M25.3333 27.3627C23.1147 27.3047 21.0547 26.9553 19.3473 26.37C18.3307 28.1687 17.508 30.1493 16.886 32.2693C19.582 32.482 22.4213 32.5947 25.3333 32.61V27.3627Z" fill="#6F928D"/>
<path id="Vector_6" d="M9.81467 31.4307C11.6153 31.7227 13.528 31.9627 15.5313 32.148C16.1727 29.8953 17.0353 27.7907 18.102 25.8733C17.576 25.6287 17.1007 25.356 16.6813 25.0593C13.9033 26.5913 11.5447 28.7867 9.81467 31.4307Z" fill="#6F928D"/>
<path id="Vector_7" d="M37.2307 43.0114C37.7327 42.68 38.2273 42.3307 38.714 41.9614C38.2267 42.0167 37.744 42.076 37.2507 42.1247C37.25 42.4314 37.238 42.7174 37.2307 43.0114Z" fill="#6F928D"/>
<path id="Vector_8" d="M36.2553 33.506C36.8187 35.8546 37.1407 38.296 37.2167 40.7873C38.3827 40.6706 39.522 40.5293 40.6407 40.3746C42.1007 39.0646 43.3687 37.6833 44.464 36.2826C44.0713 35.016 43.5593 33.8013 42.9287 32.66C40.8473 33.014 38.608 33.296 36.2553 33.506Z" fill="#6F928D"/>
<path id="Vector_9" d="M38.8867 56.408C34.8513 58.5967 30.304 60.2594 25.5007 61.3207C25.6673 61.3247 25.8327 61.3334 26 61.3334C30.9513 61.3334 35.4667 59.4694 38.8867 56.408Z" fill="#6F928D"/>
<path id="Vector_10" d="M6.66667 42C6.66667 44.0213 6.978 45.97 7.55333 47.8013C9.54733 48.114 12.01 48.3933 14.7493 48.482C14.3807 46.398 14.1853 44.25 14.1813 42.0693C11.468 41.786 8.96067 41.4027 6.69733 40.93C6.678 41.2847 6.66667 41.6407 6.66667 42Z" fill="#6F928D"/>
<path id="Vector_11" d="M16.1127 48.5093C19.0067 48.5313 22.1493 48.3207 25.3333 47.7053V42.6587C21.944 42.6407 18.6513 42.486 15.5187 42.1987C15.53 44.3487 15.7347 46.4627 16.1127 48.5093Z" fill="#6F928D"/>
<path id="Vector_12" d="M26.6667 47.4227C29.7953 46.7047 32.9273 45.5707 35.8673 43.8587C35.8933 43.34 35.9113 42.8087 35.9147 42.2493C32.956 42.5047 29.8533 42.6427 26.6667 42.6593V47.4227Z" fill="#6F928D"/>
<path id="Vector_13" d="M26.6667 27.3627V32.61C29.3813 32.5953 32.0287 32.494 34.56 32.308C33.9507 30.2173 33.1513 28.2787 32.172 26.5273C30.564 27.018 28.68 27.3093 26.6667 27.3627Z" fill="#6F928D"/>
<path id="Vector_14" d="M26 26.0394C29.14 26.0394 32.0433 25.4107 33.918 24.364C31.5007 23.2767 28.8227 22.6667 26 22.6667C23.1773 22.6667 20.4993 23.2767 18.082 24.3634C19.9567 25.41 22.86 26.0394 26 26.0394Z" fill="#6F928D"/>
<path id="Vector_15" d="M26.6667 41.326C29.846 41.3087 32.94 41.1707 35.888 40.9133C35.8167 38.4047 35.4907 35.9613 34.914 33.6193C32.2733 33.82 29.504 33.928 26.6667 33.9427V41.326Z" fill="#6F928D"/>
<path id="Vector_16" d="M40 42.6667C25.328 54.2793 3.60867 48.532 2 48V60.2327C18.8347 63.7393 38.908 58.7567 48.6667 46.8993C55.6813 38.376 57.0233 28.578 57.3333 24H62L54.6667 12L47.3333 24H52C51.0687 27.5 48.2427 36.1427 40 42.6667Z" fill="#6F928D"/>
</g>
</svg>
