<svg width="64" height="64" viewBox="0 0 64 64" fill="none" xmlns="http://www.w3.org/2000/svg">
<g id="money-stack_svgrepo.com" clip-path="url(#clip0_4_243)">
<path id="Vector" d="M25.6 23.4667C25.6 19.932 28.4654 17.0667 32 17.0667C35.5346 17.0667 38.4 19.932 38.4 23.4667C38.4 27.0013 35.5346 29.8667 32 29.8667C28.4654 29.8667 25.6 27.0013 25.6 23.4667Z" fill="#6F928D"/>
<path id="Vector_2" fill-rule="evenodd" clip-rule="evenodd" d="M6.4 0C2.86538 0 0 2.86538 0 6.4V40.5333C0 44.0678 2.86538 46.9333 6.4 46.9333H57.6C61.1345 46.9333 64 44.0678 64 40.5333V6.4C64 2.86538 61.1345 0 57.6 0H6.4ZM17.0667 8.53333H8.53333V17.0667H12.8V12.8H17.0667V8.53333ZM32 12.8C26.109 12.8 21.3333 17.5756 21.3333 23.4667C21.3333 29.3577 26.109 34.1333 32 34.1333C37.891 34.1333 42.6667 29.3577 42.6667 23.4667C42.6667 17.5756 37.891 12.8 32 12.8ZM51.2 12.8H46.9333V8.53333H55.4667V17.0667H51.2V12.8ZM12.8 29.8667H8.53333V38.4H17.0667V34.1333H12.8V29.8667ZM46.9333 38.4V34.1333H51.2V29.8667H55.4667V38.4H46.9333Z" fill="#6F928D"/>
<path id="Vector_3" d="M0 51.2V55.4667H64V51.2H0Z" fill="#6F928D"/>
<path id="Vector_4" d="M0 59.7333V64H64V59.7333H0Z" fill="#6F928D"/>
</g>
<defs>
<clipPath id="clip0_4_243">
<rect width="64" height="64" fill="white"/>
</clipPath>
</defs>
</svg>
