<svg width="64" height="64" viewBox="0 0 64 64" fill="none" xmlns="http://www.w3.org/2000/svg">
<g id="presentation-financial_svgrepo.com" clip-path="url(#clip0_4_248)">
<g id="Group">
<g id="Group_2">
<path id="Vector" d="M60.8268 3.31914H35.4927V0.455469C35.4927 0.203776 35.285 0 35.0289 0H28.9712C28.7151 0 28.5074 0.203776 28.5074 0.455469V3.31914H3.17344C1.70143 3.31914 0.508073 4.49089 0.508073 5.9362C0.508073 7.38151 1.70143 8.55326 3.17344 8.55326H60.8268C62.2987 8.55326 63.4921 7.38151 63.4921 5.9362C63.4921 4.49089 62.2988 3.31914 60.8268 3.31914Z" fill="#6F928D"/>
</g>
</g>
<g id="Group_3">
<g id="Group_4">
<path id="Vector_2" d="M60.8268 45.7361H3.17344C1.70143 45.7361 0.508073 46.9078 0.508073 48.3531C0.508073 49.7985 1.70143 50.9703 3.17344 50.9703H27.7096L23.1496 61.621C22.7605 62.4699 23.1464 63.468 24.0118 63.8512C24.8741 64.2334 25.8927 63.8544 26.2832 63.0046L31.3434 50.9703H32.6565L37.7168 63.0046C38.0033 63.6293 38.6294 63.9995 39.2848 63.9995C39.5206 63.9995 39.76 63.9521 39.988 63.8512C40.8538 63.468 41.2396 62.4699 40.8505 61.621L36.2904 50.9703H60.8266C62.2984 50.9703 63.4918 49.7985 63.4918 48.3531C63.4922 46.9078 62.2988 45.7361 60.8268 45.7361Z" fill="#6F928D"/>
</g>
</g>
<g id="Group_5">
<g id="Group_6">
<path id="Vector_3" d="M20.2451 35.2264L14.8368 37.8921H24.8382L20.2451 35.2264Z" fill="#6F928D"/>
</g>
</g>
<g id="Group_7">
<g id="Group_8">
<path id="Vector_4" d="M4.0151 10.5849V12.415V41.8742V43.7043H59.985V41.8742V12.415V10.5849H4.0151ZM52.8436 39.9238H11.7297C11.1687 39.9238 10.7138 39.4694 10.7138 38.9079V14.5766C10.7138 14.0151 11.1687 13.5607 11.7297 13.5607C12.2906 13.5607 12.7456 14.0151 12.7456 14.5766V36.7422L19.3164 28.6867C19.6344 28.2958 20.1919 28.1966 20.6243 28.4565L24.9707 31.0529L31.7102 21.6203C31.8714 21.3941 32.119 21.2434 32.3943 21.2047C32.6704 21.163 32.9488 21.2414 33.1671 21.4139L37.1805 24.5885L48.2499 13.2284C48.6422 12.8266 49.2845 12.8188 49.6863 13.2106C50.0882 13.6014 50.0965 14.2452 49.7051 14.647L37.9962 26.6629C37.6341 27.0349 37.0483 27.0746 36.6382 26.7501L32.7428 23.6688L26.0792 32.9952C25.7716 33.4268 25.1853 33.5467 24.732 33.277L20.3362 30.6509L17.2454 34.4396L19.8352 33.1628C20.1408 33.013 20.5004 33.0249 20.794 33.1954L25.3283 35.8264L33.0941 29.3404C33.3431 29.1329 33.6754 29.0526 33.993 29.135L39.0927 30.4148L50.0788 21.2552C50.5092 20.8951 51.1496 20.9526 51.5098 21.3841C51.8689 21.8158 51.8109 22.4556 51.3802 22.8147L39.9973 32.3057C39.7467 32.5142 39.413 32.5905 39.099 32.5112L33.9997 31.2314L26.0848 37.8425C26.0595 37.8635 26.0289 37.8737 26.002 37.8921H52.8436C53.4046 37.8921 53.8595 38.3465 53.8595 38.9079C53.8596 39.4694 53.4047 39.9238 52.8436 39.9238Z" fill="#6F928D"/>
</g>
</g>
</g>
<defs>
<clipPath id="clip0_4_248">
<rect width="64" height="64" fill="white"/>
</clipPath>
</defs>
</svg>
