<svg width="65" height="64" viewBox="0 0 65 64" fill="none" xmlns="http://www.w3.org/2000/svg">
<g id="information-3_svgrepo.com" clip-path="url(#clip0_4_308)">
<g id="Group">
<path id="Vector" d="M32.499 0.000976562C14.8283 0.000976562 0.5 14.3282 0.5 32C0.5 49.6717 14.8283 63.999 32.499 63.999C50.1739 63.999 64.5 49.6719 64.5 32C64.5 14.3281 50.1739 0.000976562 32.499 0.000976562ZM38.1177 46.691C36.8234 48.1275 36.0815 48.9812 34.6844 50.3169C32.5696 52.339 30.1684 52.8773 28.3015 50.8814C25.6181 48.0115 28.4325 39.2808 28.5011 38.9502C29.0051 36.6297 30.0111 31.9919 30.0111 31.9919C30.0111 31.9919 27.8378 33.3224 26.5475 33.7942C25.5959 34.142 24.5194 33.6854 24.2533 32.765C24.0053 31.9122 24.2028 31.3699 24.725 30.7872C26.0193 29.3517 26.7611 28.498 28.1584 27.1624C30.2751 25.1392 32.6744 24.602 34.5412 26.5969C37.2246 29.4667 35.2448 34.1884 34.5493 37.534C34.4808 37.8656 32.8315 45.4874 32.8315 45.4874C32.8315 45.4874 35.0049 44.1567 36.2951 43.684C37.2486 43.3372 38.3252 43.7948 38.5914 44.7142C38.8395 45.5671 38.64 46.1094 38.1177 46.691ZM34.6461 22.0154C31.6604 22.2774 29.0294 20.0699 28.7673 17.082C28.5072 14.0972 30.7148 11.4652 33.7006 11.2052C36.6844 10.9431 39.3174 13.1527 39.5775 16.1375C39.8395 19.1224 37.6299 21.7554 34.6461 22.0154Z" fill="#6F928D"/>
</g>
</g>
<defs>
<clipPath id="clip0_4_308">
<rect width="64" height="64" fill="white" transform="translate(0.5)"/>
</clipPath>
</defs>
</svg>
