<svg width="64" height="64" viewBox="0 0 64 64" fill="none" xmlns="http://www.w3.org/2000/svg">
<g id="manager-avatar_svgrepo.com" clip-path="url(#clip0_4_311)">
<path id="Vector" d="M47.0811 18.898C46.7265 18.3507 46.2967 17.9777 45.8964 17.7253C45.8944 17.046 45.8496 16.0854 45.6879 14.9774C45.7971 13.6554 46.1787 6.37622 41.7249 3.09427C38.9779 1.06988 35.9191 0 32.8793 0C30.4087 0 28.0557 0.702125 26.2536 1.97696C24.6306 3.12531 23.7367 4.37438 23.2635 5.25364C21.864 5.30313 18.9644 5.87379 17.682 9.57092C16.4686 13.0681 17.4483 15.2286 18.1689 16.23C18.1217 16.8091 18.1048 17.3183 18.1036 17.725C17.7033 17.9774 17.2735 18.3504 16.9189 18.8977C16.1167 20.1359 15.9802 21.7963 16.5131 23.8339C17.5095 27.6438 19.8346 28.4823 21.0752 28.6507C21.8394 30.1785 23.5189 33.3009 25.1995 34.8697C25.8709 35.4963 26.7437 36.0251 27.7937 36.442C29.1338 36.9737 30.5492 37.2434 32 37.2434C33.4508 37.2434 34.8662 36.9737 36.2063 36.442C37.2563 36.0251 38.1291 35.4963 38.8005 34.8697C40.4811 33.3009 42.1606 30.1785 42.9248 28.6507C44.1651 28.4823 46.4902 27.6435 47.4869 23.8336C48.0198 21.7966 47.8833 20.1359 47.0811 18.898ZM44.6541 23.0931C44.0468 25.4156 42.9614 25.7623 42.3682 25.7623C42.326 25.7623 42.2944 25.7599 42.2757 25.7585C41.5982 25.5872 40.9716 25.9432 40.6753 26.5806C40.0955 27.8268 38.2691 31.3608 36.8027 32.7296C36.3996 33.1059 35.8353 33.4397 35.1262 33.7211C33.1363 34.5107 30.8634 34.5107 28.8738 33.7211C28.1647 33.4397 27.6004 33.1059 27.1973 32.7296C25.7309 31.3608 23.9045 27.8268 23.3247 26.5806C23.0782 26.0507 22.6042 25.716 22.0616 25.716C21.9515 25.716 21.8385 25.7298 21.724 25.7588C21.7053 25.7605 21.6737 25.7626 21.6318 25.7626C21.0389 25.7626 19.9535 25.4156 19.3459 23.0937C19.047 21.9509 19.0496 21.0395 19.353 20.5277C19.5295 20.2302 19.7801 20.13 19.8621 20.1043C20.6477 20.0191 21.1209 19.3313 21.0553 18.5387C21.0538 18.5194 21.0026 17.8389 21.0676 16.8033C22.0751 16.3702 23.6849 15.5162 25.042 14.0504C25.7327 13.3041 26.2381 12.3897 26.5979 11.5508C27.5791 12.3519 28.9681 13.2932 30.806 14.1066C33.9538 15.4998 40.2449 16.1624 42.9005 16.3887C43.0103 17.6527 42.9462 18.5153 42.9444 18.5358C42.8753 19.3307 43.3494 20.0191 44.1376 20.1043C44.2196 20.13 44.4702 20.2305 44.6467 20.5277C44.9504 21.0392 44.953 21.9506 44.6541 23.0931ZM54.0423 42.6458L41.2427 37.5262C40.8744 37.3792 40.4624 37.3877 40.0999 37.5497C39.738 37.7122 39.4572 38.0146 39.3225 38.3876L36.105 47.2834L35.4679 45.4516L36.4815 42.9737C36.666 42.5222 36.6139 42.0084 36.3419 41.6031C36.0699 41.1982 35.6143 40.9552 35.1265 40.9552H28.8738C28.386 40.9552 27.9301 41.1982 27.6584 41.6031C27.3864 42.0084 27.3343 42.5222 27.5188 42.9737L28.5324 45.4516L27.8953 47.2834L24.6777 38.3876C24.5431 38.0146 24.2623 37.7119 23.9004 37.5497C23.5379 37.3874 23.1256 37.379 22.7576 37.5262L9.95771 42.6458C6.02721 44.2178 3.4875 47.9694 3.4875 52.2029V62.536C3.4875 63.3447 4.14307 64 4.95148 64H59.0485C59.8569 64 60.5125 63.3447 60.5125 62.536V52.2029C60.5125 47.9694 57.9728 44.2181 54.0423 42.6458ZM53.5975 56.4271C53.5975 57.2358 52.942 57.8911 52.1336 57.8911H42.3044C41.496 57.8911 40.8404 57.2358 40.8404 56.4271V51.8624C40.8404 51.0537 41.496 50.3984 42.3044 50.3984H52.1336C52.942 50.3984 53.5975 51.0537 53.5975 51.8624V56.4271Z" fill="#6F928D"/>
</g>
<defs>
<clipPath id="clip0_4_311">
<rect width="64" height="64" fill="white"/>
</clipPath>
</defs>
</svg>
