<svg width="65" height="64" viewBox="0 0 65 64" fill="none" xmlns="http://www.w3.org/2000/svg">
<g id="bank_svgrepo.com" clip-path="url(#clip0_4_318)">
<g id="Group">
<path id="Vector" d="M32.5 17C34.1569 17 35.5 15.6569 35.5 14C35.5 12.3431 34.1569 11 32.5 11C30.8431 11 29.5 12.3431 29.5 14C29.5 15.6569 30.8431 17 32.5 17Z" fill="#6F928D"/>
<path id="Vector_2" d="M4.49999 25H60.5C62.294 25 63.868 23.806 64.352 22.078C64.836 20.35 64.11 18.512 62.577 17.581L34.577 0.581C33.938 0.193 33.219 0 32.5 0C31.781 0 31.062 0.193 30.424 0.581L2.42399 17.581C0.890987 18.512 0.163987 20.351 0.648987 22.078C1.13199 23.806 2.70599 25 4.49999 25ZM32.5 9C35.262 9 37.5 11.238 37.5 14C37.5 16.762 35.262 19 32.5 19C29.738 19 27.5 16.762 27.5 14C27.5 11.238 29.738 9 32.5 9Z" fill="#6F928D"/>
<path id="Vector_3" d="M42.5 27H34.5V52H42.5V27Z" fill="#6F928D"/>
<path id="Vector_4" d="M54.5 27H46.5V52H54.5V27Z" fill="#6F928D"/>
<path id="Vector_5" d="M30.5 27H22.5V52H30.5V27Z" fill="#6F928D"/>
<path id="Vector_6" d="M18.5 27H10.5V52H18.5V27Z" fill="#6F928D"/>
<path id="Vector_7" d="M4.5 58H60.5C60.5 55.791 58.709 54 56.5 54H8.5C6.291 54 4.5 55.791 4.5 58Z" fill="#6F928D"/>
<path id="Vector_8" d="M63.945 60H1.055C0.711 60.591 0.5 61.268 0.5 62V64H64.5V62C64.5 61.268 64.289 60.591 63.945 60Z" fill="#6F928D"/>
</g>
</g>
<defs>
<clipPath id="clip0_4_318">
<rect width="64" height="64" fill="white" transform="translate(0.5)"/>
</clipPath>
</defs>
</svg>
